[img]http://img830.imageshack.us/img830/5840/49654082.jpg[/img]
[code]
Title: 30 Minutes Or Less 2011 CaM XviD - ILLUMINATI
Format: Xvid
Subtitles: No

IMDB: http://www.imdb.com/title/tt1622547/

Two fledgling criminals kidnap a pizza delivery guy, strap a bomb to his chest, 
and inform him that he has mere hours to rob a bank or else... 

Source:
Video: Relizlab - Thanks
Audio:              - Thanks

Release Notes:
Ok here we are with our.... 30 Minutes Or Less 2011 CaM XviD - ILLUMINATI release
Video is not to bad more than watchable so big thanks to Relizlab on that 
Audio is cam a few luaghs here and there but what do you expect for a comedy  

Info:
ID                               : 0
Format                           : MPEG-4 Visual
Format profile                   : Advanced Simple@L5
Format settings, BVOP            : 2
Format settings, QPel            : No
Format settings, GMC             : No warppoints
Format settings, Matrix          : Default (H.263)
Muxing mode                      : Packed bitstream
Codec ID                         : XVID
Codec ID/Hint                    : XviD
Duration                         : 1h 14mn
Bit rate                         : 2 384 Kbps
Width                            : 720 pixels
Height                           : 304 pixels
Display aspect ratio             : 2.35:1
Frame rate                       : 25.000 fps
Color space                      : YUV
Chroma subsampling               : 4:2:0
Bit depth                        : 8 bits
Scan type                        : Progressive
Compression mode                 : Lossy
Bits/(Pixel*Frame)               : 0.436
Stream size                      : 1.25 GiB (95%)
Writing library                  : XviD 64

ID                               : 1
Format                           : MPEG Audio
Format version                   : Version 1
Format profile                   : Layer 3
Mode                             : Joint stereo
Mode extension                   : MS Stereo
Codec ID                         : 55
Codec ID/Hint                    : MP3
Duration                         : 1h 14mn
Bit rate mode                    : Constant
Bit rate                         : 128 Kbps
Channel(s)                       : 2 channels
Sampling rate                    : 44.1 KHz
Compression mode                 : Lossy
Stream size                      : 68.5 MiB (5%)
Alignment                        : Split accross interleaves
Interleave, duration             : 40 ms (1.00 video frame)
Writing library                  : LAME3.98r
Encoding settings                : -m j -V 4 -q 2 -lowpass 17 -b 128
[/code]
Screens:
[img]http://img835.imageshack.us/img835/7496/54751955.png[/img]
[img]http://img580.imageshack.us/img580/9838/49668965.png[/img]
[img]http://img204.imageshack.us/img204/5489/74481547.png[/img]
[img]http://img11.imageshack.us/img11/6166/11541009.png[/img]